<svg width="58" height="58" viewBox="0 0 58 58" fill="none" xmlns="http://www.w3.org/2000/svg">
<path d="M40.2969 24.8125C40.2969 26.349 40.2969 27.8724 40.2969 29.3828C40.2969 30.8932 40.2188 32.4167 40.0625 33.9531C39.776 37.2083 39.0729 40.2943 37.9531 43.2109C36.8333 46.1016 35.3099 48.6406 33.3828 50.8281C31.4818 53.0156 29.1641 54.7474 26.4297 56.0234C23.6953 57.2995 20.5573 57.9375 17.0156 57.9375C15.6354 57.9375 14.1901 57.8203 12.6797 57.5859C11.1953 57.3516 9.71094 57 8.22656 56.5312C6.76823 56.0625 5.36198 55.4896 4.00781 54.8125C2.67969 54.1094 1.49479 53.3021 0.453125 52.3906L2.875 36.2188C4.41146 37.7031 6.11719 38.9141 7.99219 39.8516C9.86719 40.763 11.9115 41.2188 14.125 41.2188C15.5573 41.2188 16.7682 41.0104 17.7578 40.5938C18.7474 40.1771 19.5677 39.6042 20.2188 38.875C20.8698 38.1458 21.3776 37.2995 21.7422 36.3359C22.1328 35.3464 22.4062 34.3047 22.5625 33.2109C22.7448 32.0911 22.849 30.9453 22.875 29.7734C22.9271 28.6016 22.9531 27.4427 22.9531 26.2969C22.9531 22.1562 22.7448 18.0417 22.3281 13.9531C21.9115 9.83854 21.5469 5.72396 21.2344 1.60938L39.125 0.4375C39.9062 8.5625 40.2969 16.6875 40.2969 24.8125ZM57.7188 48.9531C57.7188 50.099 57.4974 51.1667 57.0547 52.1562C56.612 53.1458 56.013 54.0182 55.2578 54.7734C54.5286 55.5026 53.6693 56.0885 52.6797 56.5312C51.6901 56.9479 50.6354 57.1562 49.5156 57.1562C48.3698 57.1562 47.3021 56.9479 46.3125 56.5312C45.3229 56.0885 44.4505 55.5026 43.6953 54.7734C42.9661 54.0182 42.3802 53.1458 41.9375 52.1562C41.5208 51.1667 41.3125 50.099 41.3125 48.9531C41.3125 47.8333 41.5208 46.7656 41.9375 45.75C42.3802 44.7344 42.9661 43.862 43.6953 43.1328C44.4505 42.3776 45.3229 41.7786 46.3125 41.3359C47.3021 40.8932 48.3698 40.6719 49.5156 40.6719C50.6354 40.6719 51.6901 40.8932 52.6797 41.3359C53.6693 41.7786 54.5286 42.3776 55.2578 43.1328C56.013 43.862 56.612 44.7344 57.0547 45.75C57.4974 46.7656 57.7188 47.8333 57.7188 48.9531Z" fill="#00D25B"/>
</svg>
