<svg width="338" height="59" viewBox="0 0 338 59" fill="none" xmlns="http://www.w3.org/2000/svg">
<path d="M40.2969 25.8125C40.2969 27.349 40.2969 28.8724 40.2969 30.3828C40.2969 31.8932 40.2188 33.4167 40.0625 34.9531C39.776 38.2083 39.0729 41.2943 37.9531 44.2109C36.8333 47.1016 35.3099 49.6406 33.3828 51.8281C31.4818 54.0156 29.1641 55.7474 26.4297 57.0234C23.6953 58.2995 20.5573 58.9375 17.0156 58.9375C15.6354 58.9375 14.1901 58.8203 12.6797 58.5859C11.1953 58.3516 9.71094 58 8.22656 57.5312C6.76823 57.0625 5.36198 56.4896 4.00781 55.8125C2.67969 55.1094 1.49479 54.3021 0.453125 53.3906L2.875 37.2188C4.41146 38.7031 6.11719 39.9141 7.99219 40.8516C9.86719 41.763 11.9115 42.2188 14.125 42.2188C15.5573 42.2188 16.7682 42.0104 17.7578 41.5938C18.7474 41.1771 19.5677 40.6042 20.2188 39.875C20.8698 39.1458 21.3776 38.2995 21.7422 37.3359C22.1328 36.3464 22.4062 35.3047 22.5625 34.2109C22.7448 33.0911 22.849 31.9453 22.875 30.7734C22.9271 29.6016 22.9531 28.4427 22.9531 27.2969C22.9531 23.1562 22.7448 19.0417 22.3281 14.9531C21.9115 10.8385 21.5469 6.72396 21.2344 2.60938L39.125 1.4375C39.9062 9.5625 40.2969 17.6875 40.2969 25.8125ZM92.0547 28.0781C92.0547 30.4479 91.7812 32.7396 91.2344 34.9531C90.6875 37.1406 89.8932 39.1979 88.8516 41.125C87.8359 43.0521 86.5859 44.8229 85.1016 46.4375C83.6432 48.026 81.9896 49.3932 80.1406 50.5391C78.3177 51.6849 76.3255 52.5833 74.1641 53.2344C72.0026 53.8594 69.7109 54.1719 67.2891 54.1719C64.9453 54.1719 62.7057 53.8724 60.5703 53.2734C58.4609 52.6745 56.4818 51.8411 54.6328 50.7734C52.7839 49.6797 51.1042 48.3776 49.5938 46.8672C48.1094 45.3307 46.8333 43.638 45.7656 41.7891C44.724 39.9141 43.9036 37.9089 43.3047 35.7734C42.7318 33.638 42.4453 31.4115 42.4453 29.0938C42.4453 26.8281 42.7188 24.6146 43.2656 22.4531C43.8125 20.2656 44.5938 18.2083 45.6094 16.2812C46.651 14.3542 47.901 12.5833 49.3594 10.9688C50.8177 9.35417 52.4453 7.96094 54.2422 6.78906C56.0651 5.61719 58.0312 4.70573 60.1406 4.05469C62.25 3.40365 64.4766 3.07812 66.8203 3.07812C70.5964 3.07812 74.0339 3.66406 77.1328 4.83594C80.2578 6.00781 82.9141 7.6875 85.1016 9.875C87.3151 12.0365 89.0208 14.6667 90.2188 17.7656C91.4427 20.8385 92.0547 24.276 92.0547 28.0781ZM74.7109 29.0938C74.7109 27.974 74.5417 26.8932 74.2031 25.8516C73.8906 24.7839 73.4219 23.8464 72.7969 23.0391C72.1719 22.2057 71.3906 21.5417 70.4531 21.0469C69.5417 20.526 68.487 20.2656 67.2891 20.2656C66.0651 20.2656 64.9714 20.487 64.0078 20.9297C63.0443 21.3724 62.2109 21.9844 61.5078 22.7656C60.8307 23.5208 60.3099 24.4193 59.9453 25.4609C59.5807 26.4766 59.3984 27.5573 59.3984 28.7031C59.3984 29.7969 59.5547 30.8906 59.8672 31.9844C60.1797 33.0781 60.6484 34.0677 61.2734 34.9531C61.8984 35.8385 62.6667 36.5547 63.5781 37.1016C64.5156 37.6484 65.5964 37.9219 66.8203 37.9219C68.0443 37.9219 69.138 37.6875 70.1016 37.2188C71.0911 36.724 71.9245 36.0729 72.6016 35.2656C73.2786 34.4323 73.7995 33.4818 74.1641 32.4141C74.5286 31.3464 74.7109 30.2396 74.7109 29.0938ZM141.352 3C140.18 12.1667 139.177 21.2943 138.344 30.3828C137.51 39.4453 136.716 48.5729 135.961 57.7656L119.945 58.9375L120.648 52.9219C120.128 53.5208 119.516 54.0417 118.812 54.4844C118.135 54.9271 117.406 55.2917 116.625 55.5781C115.844 55.8385 115.036 56.0339 114.203 56.1641C113.37 56.2682 112.576 56.3073 111.82 56.2812C110.049 56.2552 108.383 55.9167 106.82 55.2656C105.258 54.5885 103.826 53.7031 102.523 52.6094C101.221 51.4896 100.049 50.2005 99.0078 48.7422C97.9661 47.2578 97.0807 45.7083 96.3516 44.0938C95.6484 42.4531 95.1016 40.7865 94.7109 39.0938C94.3464 37.401 94.1641 35.7604 94.1641 34.1719C94.1641 31.8281 94.2031 29.4062 94.2812 26.9062C94.3854 24.3802 94.5547 21.8542 94.7891 19.3281C95.0234 16.8021 95.3229 14.3021 95.6875 11.8281C96.0781 9.35417 96.5599 6.98438 97.1328 4.71875C100.31 4.875 103.5 5.01823 106.703 5.14844C109.906 5.27865 113.096 5.31771 116.273 5.26562C115.674 7.53125 115.076 9.8099 114.477 12.1016C113.904 14.3672 113.383 16.6589 112.914 18.9766C112.445 21.2682 112.068 23.5729 111.781 25.8906C111.495 28.2083 111.352 30.5521 111.352 32.9219C111.352 33.4688 111.378 34.25 111.43 35.2656C111.482 36.2812 111.612 37.2839 111.82 38.2734C112.055 39.263 112.393 40.1354 112.836 40.8906C113.305 41.6198 113.956 41.9844 114.789 41.9844C115.779 41.9844 116.664 41.5677 117.445 40.7344C118.227 39.875 118.917 38.7292 119.516 37.2969C120.115 35.8646 120.622 34.2109 121.039 32.3359C121.482 30.4609 121.846 28.5078 122.133 26.4766C122.445 24.4193 122.693 22.349 122.875 20.2656C123.057 18.1823 123.188 16.2292 123.266 14.4062C123.37 12.5573 123.435 10.9036 123.461 9.44531C123.513 7.98698 123.539 6.85417 123.539 6.04688C123.539 5.52604 123.526 5.01823 123.5 4.52344C123.474 4.02865 123.435 3.52083 123.383 3C125.076 3.05208 126.755 3.09115 128.422 3.11719C130.089 3.14323 131.768 3.15625 133.461 3.15625C134.763 3.15625 136.065 3.15625 137.367 3.15625C138.695 3.13021 140.023 3.07812 141.352 3ZM189.477 20.3438C189.477 22.375 189.294 24.224 188.93 25.8906C188.591 27.5312 188.044 29.0417 187.289 30.4219C186.534 31.8021 185.557 33.0781 184.359 34.25C183.161 35.4219 181.716 36.5417 180.023 37.6094L189.32 54.1719L171.742 57.6094L165.727 40.9688L160.883 41.125L160.18 57.375H143.383C143.513 51.4375 143.63 45.526 143.734 39.6406C143.865 33.7552 144.008 27.8438 144.164 21.9062C144.216 18.9115 144.268 15.9427 144.32 13C144.372 10.0573 144.477 7.08854 144.633 4.09375C146.456 3.41667 148.253 2.85677 150.023 2.41406C151.794 1.97135 153.565 1.63281 155.336 1.39844C157.133 1.13802 158.943 0.96875 160.766 0.890625C162.615 0.786458 164.503 0.734375 166.43 0.734375C169.398 0.734375 172.263 1.15104 175.023 1.98438C177.81 2.79167 180.271 4.01562 182.406 5.65625C184.542 7.29688 186.247 9.34115 187.523 11.7891C188.826 14.237 189.477 17.0885 189.477 20.3438ZM171.977 21.5938C171.977 20.5 171.82 19.4974 171.508 18.5859C171.221 17.6745 170.779 16.8932 170.18 16.2422C169.607 15.5651 168.878 15.0443 167.992 14.6797C167.133 14.2891 166.117 14.0938 164.945 14.0938C164.424 14.0938 163.917 14.1328 163.422 14.2109C162.927 14.263 162.445 14.3542 161.977 14.4844L161.352 29.0156H162.289C163.409 29.0156 164.542 28.8724 165.688 28.5859C166.859 28.2995 167.901 27.8568 168.812 27.2578C169.75 26.6589 170.505 25.8906 171.078 24.9531C171.677 24.0156 171.977 22.8958 171.977 21.5938ZM240.688 38.2344C240.688 41.1771 240.648 44.0938 240.57 46.9844C240.518 49.849 240.427 52.7396 240.297 55.6562L217.797 55.2656C218.578 50.6562 219.255 46.0599 219.828 41.4766C220.401 36.8672 220.688 32.2188 220.688 27.5312C220.688 27.1927 220.674 26.6458 220.648 25.8906C220.622 25.1354 220.57 24.2891 220.492 23.3516C220.414 22.388 220.297 21.4115 220.141 20.4219C220.01 19.4062 219.815 18.4818 219.555 17.6484C219.32 16.8151 219.021 16.138 218.656 15.6172C218.318 15.0703 217.901 14.7969 217.406 14.7969C216.521 14.7969 215.766 15.0573 215.141 15.5781C214.542 16.099 214.034 16.776 213.617 17.6094C213.227 18.4167 212.914 19.3281 212.68 20.3438C212.445 21.3594 212.263 22.375 212.133 23.3906C212.029 24.4062 211.951 25.3698 211.898 26.2812C211.872 27.1667 211.859 27.8958 211.859 28.4688C211.729 33.0781 211.625 37.6615 211.547 42.2188C211.469 46.75 211.365 51.3333 211.234 55.9688L191.312 56.8281C191.833 47.6354 192.328 38.4948 192.797 29.4062C193.292 20.3177 193.682 11.1771 193.969 1.98438L212.406 1.04688L212.25 7.29688C212.979 6.41146 213.76 5.57812 214.594 4.79688C215.453 4.01562 216.365 3.35156 217.328 2.80469C218.292 2.23177 219.307 1.78906 220.375 1.47656C221.469 1.13802 222.615 0.96875 223.812 0.96875C226.026 0.96875 227.966 1.33333 229.633 2.0625C231.299 2.79167 232.732 3.78125 233.93 5.03125C235.128 6.28125 236.13 7.76562 236.938 9.48438C237.745 11.1771 238.396 12.987 238.891 14.9141C239.385 16.8411 239.763 18.8594 240.023 20.9688C240.284 23.0521 240.453 25.1094 240.531 27.1406C240.635 29.1719 240.688 31.138 240.688 33.0391C240.688 34.9401 240.688 36.6719 240.688 38.2344ZM287.992 26.4375C287.992 28.7031 287.836 30.9688 287.523 33.2344C283.07 33.5208 278.643 33.9896 274.242 34.6406C269.841 35.2656 265.44 35.8906 261.039 36.5156C261.716 38.3906 262.771 39.888 264.203 41.0078C265.661 42.1276 267.393 42.6875 269.398 42.6875C270.44 42.6875 271.573 42.4922 272.797 42.1016C274.047 41.7109 275.284 41.2292 276.508 40.6562C277.732 40.0573 278.904 39.4193 280.023 38.7422C281.143 38.0651 282.107 37.4531 282.914 36.9062L281.039 54.6406C280.023 55.4219 278.917 56.0859 277.719 56.6328C276.547 57.1797 275.323 57.6224 274.047 57.9609C272.771 58.2995 271.482 58.5469 270.18 58.7031C268.878 58.8594 267.602 58.9375 266.352 58.9375C263.773 58.9375 261.417 58.5859 259.281 57.8828C257.146 57.1797 255.206 56.2031 253.461 54.9531C251.742 53.6771 250.232 52.1797 248.93 50.4609C247.628 48.7422 246.547 46.8672 245.688 44.8359C244.828 42.8047 244.177 40.6562 243.734 38.3906C243.292 36.125 243.07 33.8333 243.07 31.5156C243.07 29.0938 243.292 26.6719 243.734 24.25C244.177 21.8281 244.841 19.4974 245.727 17.2578C246.638 15.0182 247.771 12.9479 249.125 11.0469C250.505 9.11979 252.107 7.4401 253.93 6.00781C255.753 4.57552 257.81 3.45573 260.102 2.64844C262.419 1.84115 264.971 1.4375 267.758 1.4375C270.076 1.4375 272.185 1.76302 274.086 2.41406C276.013 3.03906 277.719 3.92448 279.203 5.07031C280.714 6.1901 282.016 7.53125 283.109 9.09375C284.229 10.6562 285.141 12.375 285.844 14.25C286.573 16.099 287.107 18.0651 287.445 20.1484C287.81 22.2057 287.992 24.3021 287.992 26.4375ZM272.367 24.4062C272.367 23.6771 272.289 22.9349 272.133 22.1797C271.977 21.3984 271.716 20.6953 271.352 20.0703C271.013 19.4453 270.557 18.9375 269.984 18.5469C269.411 18.1302 268.695 17.9219 267.836 17.9219C266.794 17.9219 265.87 18.2083 265.062 18.7812C264.281 19.3281 263.604 20.0312 263.031 20.8906C262.458 21.724 261.99 22.6354 261.625 23.625C261.26 24.6146 260.987 25.526 260.805 26.3594L272.367 25.2656V24.4062ZM337.406 5.10938L319.047 35.1094L319.594 57.2188H299.516L299.984 35.2656L285.688 6.28125L305.609 3.78125L311.859 20.6562L318.656 3.78125L337.406 5.10938Z" fill="#00D25B"/>
</svg>
